# xmcd
# 
# Track frame offsets:
#     150
#     22115
#     40265
#     59182
#     83722
#     101982
#     124995
#     141857
#     170675
#     187082
#     208762
#     222215
#     240412
#     261777
#     275485
# 
# Disc length: 3960
# 
# Revision: 0
# Processed by: cddbd v1.5.2PL0 Copyright (c) Steve Scherf et al.
# Submitted via: fre:ac v1.1beta1pre5
# 
DISCID=ef0f760f
DTITLE=Paul Rodgers - Muddy Water Blues - A Tribute To Muddy Waters [CD1]
DYEAR=1993
DGENRE=Blues
TTITLE0=Muddy Water Blues (Accoustic Version)
TTITLE1=Louisiana Blues
TTITLE2=I Can't Be Satisfied
TTITLE3=Rollin' Stone
TTITLE4=Good Morning Little School Girl (Part 1)
TTITLE5=I'm Your Hoochie Coochie Man
TTITLE6=She's Alright
TTITLE7=Standing Around Crying
TTITLE8=The Hunter
TTITLE9=She Moves Me
TTITLE10=I'm Ready
TTITLE11=I Just Want To Make Love To You
TTITLE12=Born Under A Bad Sign
TTITLE13=Good Morning Little School Girl (Part 2)
TTITLE14=Muddy Water Blues (Electric Version)
EXTD=YEAR: 1993
EXTT0=
EXTT1=
EXTT2=
EXTT3=
EXTT4=
EXTT5=
EXTT6=
EXTT7=
EXTT8=
EXTT9=
EXTT10=
EXTT11=
EXTT12=
EXTT13=
EXTT14=
PLAYORDER=
